<svg width="52" height="20" viewBox="0 0 52 20" fill="none" xmlns="http://www.w3.org/2000/svg">
<path d="M24.1145 15.6237H22.2178V1.06183H27.2461C28.5205 1.06183 29.6072 1.48095 30.4963 2.31918C31.4052 3.15741 31.8596 4.18083 31.8596 5.38944C31.8596 6.62729 31.4052 7.65071 30.4963 8.4792C29.6171 9.30768 28.5304 9.71705 27.2461 9.71705H24.1145V15.6237ZM24.1145 2.85526V7.93337H27.2857C28.0365 7.93337 28.6687 7.67996 29.1627 7.18287C29.6665 6.68578 29.9233 6.08147 29.9233 5.39919C29.9233 4.72665 29.6665 4.1321 29.1627 3.63501C28.6687 3.11842 28.0463 2.865 27.2857 2.865H24.1145V2.85526Z" fill="white"/>
<path d="M36.8189 5.33094C38.2217 5.33094 39.3281 5.70132 40.1382 6.44208C40.9483 7.18284 41.3533 8.19652 41.3533 9.4831V15.6236H39.5455V14.2396H39.4664C38.686 15.38 37.6388 15.9453 36.3348 15.9453C35.2185 15.9453 34.2899 15.6236 33.5391 14.9706C32.7883 14.3176 32.4129 13.5086 32.4129 12.5339C32.4129 11.5007 32.808 10.682 33.5983 10.0777C34.3886 9.46361 35.4457 9.16146 36.7596 9.16146C37.8858 9.16146 38.8144 9.36614 39.5356 9.77551V9.34665C39.5356 8.6936 39.2787 8.14778 38.7551 7.68968C38.2316 7.23157 37.6191 7.0074 36.9177 7.0074C35.8606 7.0074 35.0209 7.44601 34.4084 8.33297L32.7389 7.2998C33.6576 5.98397 35.0209 5.33094 36.8189 5.33094ZM34.3689 12.5631C34.3689 13.0505 34.5763 13.4598 35.0011 13.7815C35.4161 14.1031 35.91 14.2688 36.4731 14.2688C37.2733 14.2688 37.9846 13.9764 38.607 13.3916C39.2293 12.8068 39.5455 12.1245 39.5455 11.335C38.9527 10.8769 38.1328 10.643 37.0757 10.643C36.3052 10.643 35.663 10.8282 35.1493 11.1888C34.6257 11.5689 34.3689 12.027 34.3689 12.5631Z" fill="white"/>
<path d="M51.6669 5.65261L45.3444 20H43.3884L45.7396 14.9804L41.5707 5.65261H43.6354L46.6385 12.8068H46.6781L49.6022 5.65261H51.6669Z" fill="white"/>
<path d="M16.571 8.53825C16.571 7.9281 16.5157 7.34426 16.413 6.78284H8.4624V9.9993L13.0413 10.0003C12.8556 11.0705 12.2579 11.9828 11.3421 12.591V14.6778H14.0677C15.6592 13.2245 16.571 11.0763 16.571 8.53825Z" fill="#4285F4"/>
<path d="M11.3405 12.5915C10.5818 13.0964 9.60474 13.3917 8.46175 13.3917C6.2538 13.3917 4.38076 11.9238 3.70998 9.94522H0.898438V12.0973C2.29137 14.8245 5.15428 16.6959 8.46175 16.6959C10.7477 16.6959 12.6682 15.9542 14.0661 14.6773L11.3405 12.5915Z" fill="#298F44"/>
<path d="M3.44676 8.34847C3.44676 7.7929 3.54061 7.25584 3.71151 6.75096V4.59885H0.899969C0.324027 5.72656 0 6.9995 0 8.34847C0 9.69743 0.325015 10.9704 0.899969 12.0981L3.71151 9.94598C3.54061 9.44109 3.44676 8.90404 3.44676 8.34847Z" fill="#FABB05"/>
<path d="M8.46175 3.30419C9.70945 3.30419 10.8268 3.72818 11.7089 4.55666L14.1243 2.1755C12.6573 0.82751 10.7448 0 8.46175 0C5.15527 0 2.29137 1.8714 0.898438 4.59857L3.70998 6.75068C4.38076 4.77207 6.25381 3.30419 8.46175 3.30419Z" fill="#E94235"/>
</svg>
