<svg width="60" height="20" viewBox="0 0 60 20" fill="none" xmlns="http://www.w3.org/2000/svg">
<path d="M38.8832 7.70944C39.6653 6.70385 41.2295 6.03346 42.4586 6.03346C44.8049 6.03346 46.7044 7.70944 46.7044 10.391V18.4357H43.6876V11.0614C43.6876 9.94408 43.2407 8.71503 41.6765 8.71503C39.8887 8.71503 38.7714 10.2793 38.7714 12.1787V18.4357H35.7547V6.36866H38.7714V7.70944H38.8832ZM55.4195 11.9553C57.7658 10.5027 59.2184 8.49157 59.8887 6.36866H56.872C56.0898 8.37983 54.3022 9.94407 52.291 10.6145V1.45246H49.1625V18.324H52.1792V13.296C54.5256 13.8547 56.3133 15.8659 56.9837 18.324H60.0005C59.5535 15.8659 57.8776 13.4078 55.4195 11.9553ZM33.52 6.36866H30.5033V18.4357H33.52V6.36866ZM25.1401 1.45246H28.1569V18.324H25.1401V1.45246ZM30.2798 3.01671C30.2798 2.12285 31.0619 1.34073 32.0675 1.34073C32.9614 1.34073 33.8552 2.12285 33.8552 3.01671C33.8552 3.91056 33.0731 4.80441 32.0675 4.80441C31.0619 4.69268 30.2798 3.91056 30.2798 3.01671Z" fill="#011E0F"/>
<mask id="mask0_link" style="mask-type:luminance" maskUnits="userSpaceOnUse" x="0" y="0" width="21" height="20">
<path d="M20.1117 0H0V20H20.1117V0Z" fill="white"/>
</mask>
<g mask="url(#mask0_link)">
<path d="M10.0559 20.0002C15.6096 20.0002 20.1117 15.4981 20.1117 9.94438C20.1117 4.39068 15.6096 -0.111481 10.0559 -0.111481C4.50216 -0.111481 0 4.39068 0 9.94438C0 15.4981 4.50216 20.0002 10.0559 20.0002Z" fill="#011E0F"/>
</g>
<mask id="mask1_link" style="mask-type:luminance" maskUnits="userSpaceOnUse" x="0" y="0" width="21" height="20">
<path d="M20.1117 0H0V20H20.1117V0Z" fill="white"/>
</mask>
<g mask="url(#mask1_link)">
<path d="M9.60896 3.91074H6.48047C7.03913 6.48057 8.82684 8.60347 11.0615 9.94426C8.82684 11.285 7.15086 13.4079 6.48047 15.9778H9.60896C10.3911 13.6314 12.514 11.6202 15.0838 11.1733V8.60348C12.514 8.26828 10.3911 6.2571 9.60896 3.91074Z" fill="white"/>
</g>
</svg>
