<svg width="76" height="20" viewBox="0 0 76 20" fill="none" xmlns="http://www.w3.org/2000/svg">
<path d="M9.00654 0.000923157H3.16878C2.76924 0.000923157 2.42953 0.291226 2.3672 0.685717L0.00613027 15.6553C-0.0408295 15.9505 0.187986 16.2169 0.487555 16.2169H3.27459C3.67407 16.2169 4.01378 15.9267 4.07611 15.5315L4.71289 11.494C4.77438 11.0987 5.11493 10.8085 5.51357 10.8085H7.36163C11.2071 10.8085 13.4265 8.94763 14.0061 5.26007C14.2673 3.64674 14.0172 2.37917 13.2617 1.49144C12.432 0.516522 10.9604 0.000923157 9.00654 0.000923157ZM9.68005 5.46837C9.36079 7.56312 7.76027 7.56312 6.21268 7.56312H5.33178L5.94977 3.65107C5.98651 3.41459 6.19132 3.24046 6.43037 3.24046H6.83408C7.88827 3.24046 8.88277 3.24046 9.39661 3.84133C9.70308 4.1999 9.79699 4.73252 9.68005 5.46837Z" fill="#283B82"/>
<path d="M26.4566 5.40112H23.6611C23.423 5.40112 23.2173 5.57527 23.1804 5.81173L23.0568 6.59362L22.8613 6.31019C22.2561 5.43181 20.9065 5.13823 19.5595 5.13823C16.4703 5.13823 13.8318 7.47793 13.318 10.76C13.0508 12.3972 13.4307 13.9628 14.3594 15.0544C15.2113 16.0583 16.4302 16.4765 17.8806 16.4765C20.3697 16.4765 21.7499 14.8761 21.7499 14.8761L21.6253 15.6529C21.5782 15.95 21.8071 16.2163 22.1051 16.2163H24.623C25.0234 16.2163 25.3614 15.926 25.4247 15.5309L26.9355 5.96277C26.9834 5.66827 26.7554 5.40112 26.4566 5.40112ZM22.5599 10.842C22.2903 12.439 21.0226 13.5113 19.406 13.5113C18.5942 13.5113 17.9454 13.2508 17.5288 12.7575C17.1157 12.2675 16.9586 11.5701 17.0901 10.7933C17.3419 9.20988 18.6309 8.10281 20.2227 8.10281C21.0167 8.10281 21.662 8.36654 22.0871 8.86412C22.5131 9.36689 22.6819 10.0686 22.5599 10.842Z" fill="#283B82"/>
<path d="M41.3455 5.40113H38.5363C38.2683 5.40113 38.0165 5.5343 37.8646 5.75714L33.99 11.4643L32.3478 5.9799C32.2445 5.6367 31.9278 5.40113 31.5693 5.40113H28.8087C28.4732 5.40113 28.2403 5.72889 28.3469 6.04473L31.4412 15.1253L28.5322 19.2321C28.3033 19.5555 28.5338 20.0004 28.9291 20.0004H31.7349C32.0012 20.0004 32.2505 19.8706 32.4015 19.6521L41.745 6.16516C41.9687 5.84243 41.7391 5.40113 41.3455 5.40113Z" fill="#283B82"/>
<path d="M50.6462 0.000923157H44.8075C44.409 0.000923157 44.0691 0.291226 44.0068 0.685717L41.6458 15.6553C41.5989 15.9505 41.8276 16.2169 42.1256 16.2169H45.1217C45.3999 16.2169 45.6382 16.0139 45.6817 15.7372L46.3517 11.494C46.4131 11.0987 46.7538 10.8085 47.1524 10.8085H48.9996C52.8459 10.8085 55.0645 8.94763 55.6449 5.26007C55.907 3.64674 55.6552 2.37917 54.8997 1.49144C54.0708 0.516522 52.6001 0.000923157 50.6462 0.000923157ZM51.3197 5.46837C51.0013 7.56312 49.4009 7.56312 47.8523 7.56312H46.9723L47.5912 3.65107C47.6279 3.41459 47.831 3.24046 48.0709 3.24046H48.4746C49.5281 3.24046 50.5233 3.24046 51.0371 3.84133C51.3436 4.1999 51.4366 4.73252 51.3197 5.46837Z" fill="#469BDB"/>
<path d="M68.0957 5.40112H65.3018C65.0619 5.40112 64.8578 5.57527 64.822 5.81173L64.6982 6.59362L64.502 6.31019C63.8968 5.43181 62.5481 5.13823 61.2011 5.13823C58.1118 5.13823 55.4743 7.47793 54.9603 10.76C54.6941 12.3972 55.0722 13.9628 56.001 15.0544C56.8546 16.0583 58.0717 16.4765 59.522 16.4765C62.0111 16.4765 63.3914 14.8761 63.3914 14.8761L63.2667 15.6529C63.2198 15.95 63.4485 16.2163 63.7483 16.2163H66.2655C66.6641 16.2163 67.0039 15.926 67.0662 15.5309L68.578 5.96277C68.6239 5.66827 68.3952 5.40112 68.0957 5.40112ZM64.1989 10.842C63.9308 12.439 62.6615 13.5113 61.0449 13.5113C60.2347 13.5113 59.5843 13.2508 59.1677 12.7575C58.7547 12.2675 58.5992 11.5701 58.7291 10.7933C58.9825 9.20988 60.2698 8.10281 61.8618 8.10281C62.6556 8.10281 63.3009 8.36654 63.726 8.86412C64.1536 9.36689 64.3226 10.0686 64.1989 10.842Z" fill="#469BDB"/>
<path d="M71.3915 0.411622L68.9954 15.6553C68.9485 15.9505 69.1772 16.2169 69.4752 16.2169H71.884C72.2843 16.2169 72.6241 15.9267 72.6856 15.5315L75.0482 0.562828C75.0953 0.267361 74.8666 0.000213623 74.5686 0.000213623H71.8711C71.633 0.000925064 71.4282 0.175283 71.3915 0.411622Z" fill="#469BDB"/>
</svg>
