<?xml version="1.0" encoding="UTF-8"?>
<svg xmlns="http://www.w3.org/2000/svg" width="50" height="50" viewBox="0 0 50 50" fill="none">
  <g clip-path="url(#clip0_75_401)">
    <path d="M25 50C38.8071 50 50 38.8071 50 25C50 11.1929 38.8071 0 25 0C11.1929 0 0 11.1929 0 25C0 38.8071 11.1929 50 25 50Z" fill="#6DA544"></path>
    <path d="M14.1304 29.8914C14.1304 31.6922 15.5903 33.1522 17.3912 33.1522H27.1738C27.1738 34.653 28.3904 35.8696 29.8912 35.8696H33.1521C34.6528 35.8696 35.8694 34.653 35.8694 33.1522V29.8914H14.1304Z" fill="#F0F0F0"></path>
    <path d="M36.1412 14.1304V21.7391C36.1412 22.9378 35.166 23.913 33.9673 23.913V27.1738C36.9641 27.1738 39.4021 24.7357 39.4021 21.7391V14.1304H36.1412Z" fill="#F0F0F0"></path>
    <path d="M12.7716 21.7391C12.7716 22.9378 11.7964 23.913 10.5977 23.913V27.1738C13.5944 27.1738 16.0324 24.7357 16.0324 21.7391V14.1304H12.7716V21.7391Z" fill="#F0F0F0"></path>
    <path d="M34.5108 14.1304H31.25V21.7391H34.5108V14.1304Z" fill="#F0F0F0"></path>
    <path d="M26.3587 18.4782C26.3587 18.7779 26.1148 19.0217 25.8152 19.0217C25.5156 19.0217 25.2718 18.7778 25.2718 18.4782V14.1304H22.0109V18.4782C22.0109 18.7779 21.7671 19.0217 21.4675 19.0217C21.1679 19.0217 20.924 18.7778 20.924 18.4782V14.1304H17.6631V18.4782C17.6631 20.576 19.3697 22.2826 21.4675 22.2826C22.2754 22.2826 23.0246 22.0287 23.6414 21.5975C24.2581 22.0286 25.0074 22.2826 25.8153 22.2826C25.978 22.2826 26.138 22.2712 26.2953 22.2512C26.0643 23.2032 25.2068 23.913 24.1849 23.913V27.1738C27.1816 27.1738 29.6196 24.7357 29.6196 21.7391V18.4782V14.1304H26.3588V18.4782H26.3587Z" fill="#F0F0F0"></path>
    <path d="M22.5544 23.9131H17.6631V27.1739H22.5544V23.9131Z" fill="#F0F0F0"></path>
  </g>
  <defs>
    <clipPath id="clip0_75_401">
      <rect width="50" height="50" fill="white"></rect>
    </clipPath>
  </defs>
</svg>
