<?xml version="1.0" encoding="UTF-8"?>
<svg xmlns="http://www.w3.org/2000/svg" width="50" height="50" viewBox="0 0 50 50" fill="none">
  <g clip-path="url(#clip0_75_444)">
    <path d="M0 24.9999C0 28.0579 0.550098 30.9872 1.55498 33.6955L25 35.8694L48.445 33.6955C49.4499 30.9872 50 28.0579 50 24.9999C50 21.9419 49.4499 19.0126 48.445 16.3043L25 14.1304L1.55498 16.3043C0.550098 19.0126 0 21.9419 0 24.9999Z" fill="#FFDA44"></path>
    <path d="M48.4452 16.3044C44.9129 6.78447 35.7493 0 25.0002 0C14.2511 0 5.0875 6.78447 1.55518 16.3044H48.4452Z" fill="#D80027"></path>
    <path d="M1.55518 33.6958C5.0875 43.2157 14.2511 50.0002 25.0002 50.0002C35.7493 50.0002 44.9129 43.2157 48.4452 33.6958H1.55518Z" fill="#D80027"></path>
  </g>
  <defs>
    <clipPath id="clip0_75_444">
      <rect width="50" height="50" fill="white"></rect>
    </clipPath>
  </defs>
</svg>
