<?xml version="1.0" encoding="UTF-8"?>
<svg xmlns="http://www.w3.org/2000/svg" width="50" height="50" viewBox="0 0 512 512">
  <mask id="a">
    <circle cx="256" cy="256" r="256" fill="#fff"></circle>
  </mask>
  <g mask="url(#a)">
    <path fill="#ffda44" d="M0 0v57l32 29-32 28v57l32 29-32 28v57l32 28-32 28v57l32 29-32 28v57h512v-57l-32-28 32-29v-57l-32-28 32-28v-57l-32-28 32-29v-57l-32-28 32-29V0H0z"></path>
    <path fill="#d80027" d="M0 57h512v57H0Zm0 114h512v57H0Zm0 114h512v56H0Zm0 113h512v57H0Z"></path>
  </g>
</svg>
