<?xml version="1.0" encoding="UTF-8"?>
<svg xmlns="http://www.w3.org/2000/svg" width="70" height="70" viewBox="0 0 70 70" fill="none">
  <rect width="70" height="70" rx="35" fill="#EDF7FF"></rect>
  <path d="M35.0003 53.3334C45.1255 53.3334 53.3337 45.1253 53.3337 35.0001C53.3337 24.8749 45.1255 16.6667 35.0003 16.6667C24.8751 16.6667 16.667 24.8749 16.667 35.0001C16.667 45.1253 24.8751 53.3334 35.0003 53.3334Z" stroke="#0088EB" stroke-width="3" stroke-linecap="round" stroke-linejoin="round"></path>
  <path d="M30.417 29.4365C30.417 28.5615 30.417 28.124 30.5999 27.8797C30.7592 27.6669 31.0031 27.5337 31.2684 27.5148C31.5727 27.493 31.9407 27.7296 32.6768 28.2028L41.3312 33.7664C41.9699 34.177 42.2893 34.3822 42.3996 34.6433C42.4959 34.8714 42.4959 35.1288 42.3996 35.3569C42.2893 35.6179 41.9699 35.8232 41.3312 36.2338L32.6768 41.7974C31.9407 42.2705 31.5727 42.5071 31.2684 42.4854C31.0031 42.4665 30.7592 42.3333 30.5999 42.1204C30.417 41.8762 30.417 41.4387 30.417 40.5636V29.4365Z" stroke="#0088EB" stroke-width="3" stroke-linecap="round" stroke-linejoin="round"></path>
</svg>
