<?xml version="1.0" encoding="UTF-8"?>
<svg xmlns="http://www.w3.org/2000/svg" width="70" height="70" viewBox="0 0 70 70" fill="none">
  <rect width="70" height="70" rx="35" fill="#EDF7FF"></rect>
  <path d="M22.167 35.0001C22.167 27.9124 27.9127 22.1667 35.0003 22.1667M43.2502 26.7501L35.0002 35.0001M53.3337 35.0001C53.3337 45.1253 45.1255 53.3334 35.0003 53.3334C24.8751 53.3334 16.667 45.1253 16.667 35.0001C16.667 24.8749 24.8751 16.6667 35.0003 16.6667C45.1255 16.6667 53.3337 24.8749 53.3337 35.0001ZM36.8337 35.0001C36.8337 36.0126 36.0128 36.8334 35.0003 36.8334C33.9878 36.8334 33.167 36.0126 33.167 35.0001C33.167 33.9876 33.9878 33.1667 35.0003 33.1667C36.0128 33.1667 36.8337 33.9876 36.8337 35.0001Z" stroke="#0088EB" stroke-width="3" stroke-linecap="round" stroke-linejoin="round"></path>
</svg>
