<svg width="50" height="50" viewBox="0 0 50 50" fill="none" xmlns="http://www.w3.org/2000/svg">
<path d="M25.722 2.00982C24.9389 1.9373 24.1644 2.27039 23.6765 2.87997L9.57732 20.4119C11.0948 23.0599 13.853 27.803 15.4282 30.546C16.2075 31.9494 14.1629 33.1384 13.3271 31.7591C11.8466 29.1411 9.21627 24.678 7.75148 22.1018L4.89574 23.7506C-4.06293 29.3962 3.60683 42.6944 12.9799 37.7529C13.8749 37.2333 15.7757 36.1416 16.6982 35.6061L40.447 31.9223C42.0585 31.7161 42.9913 29.7291 42.1259 28.3327L27.6267 3.21936C27.2279 2.52866 26.5177 2.07476 25.724 2.00835L25.722 2.00982Z" fill="#1E1E1E"/>
<path d="M34.1482 9.66732L39.8028 19.4615C44.3012 15.3418 39.9583 7.82448 34.1482 9.66732Z" fill="#1E1E1E"/>
<path d="M17.5342 37.9575L14.5305 39.6917L17.442 47.3317C17.96 48.7805 19.8194 49.4576 21.122 48.6628C21.9717 48.1722 22.4725 47.2187 22.3922 46.2302L21.6582 37.3191C21.0692 37.4168 18.1835 37.8568 17.5323 37.9591L17.5342 37.9575Z" fill="#1E1E1E"/>
<path d="M45.5082 8.22092L43.4768 9.39373C42.8955 9.72934 42.7003 10.475 43.0398 11.0631C43.3781 11.649 44.1227 11.8549 44.704 11.5193L46.7354 10.3465C48.1021 9.52604 46.9021 7.44752 45.5082 8.22092Z" fill="#1E1E1E"/>
<path d="M40.9927 7.78565C41.6208 7.54565 41.9545 5.61944 42.3071 4.76571C42.799 3.25003 40.5017 2.46362 39.9977 3.97779L39.2257 6.33102C38.8449 7.36062 40.0858 8.35775 40.994 7.78776L40.9927 7.78565Z" fill="#1E1E1E"/>
<path d="M45.7043 14.3404C44.1443 14.0207 43.6734 16.4026 45.2319 16.7344L47.6559 17.2424C49.2137 17.5633 49.6868 15.1803 48.1283 14.8484L45.7043 14.3404Z" fill="#1E1E1E"/>
</svg>
