<?xml version="1.0" encoding="UTF-8"?>
<svg xmlns="http://www.w3.org/2000/svg" width="80" height="80" viewBox="0 0 80 80" fill="none">
  <rect width="80" height="80" rx="40" fill="#2AAFA7"></rect>
  <path d="M40.0032 20.0398C49.3022 20.0398 57.1132 26.3977 59.3311 35.0043H59.3289C58.2287 35.1643 57.4288 35.4975 56.8129 35.7539L56.8019 35.7582C56.1751 36.0169 55.9713 36.0826 55.7631 36.0826C55.7412 36.0826 55.6886 36.0782 55.6886 36.0782C55.4124 36.0519 55.0201 35.9095 54.2925 35.618L54.2771 35.6114C53.5846 35.3331 52.6049 34.9276 51.5705 34.8312C51.4236 34.818 51.2768 34.8137 51.1234 34.8137H51.0839H51.0752C50.5382 34.8137 49.9794 34.9079 49.4161 35.1577L49.4096 35.1599C46.9637 36.2426 44.8071 40.3979 45.9643 43.0103L45.9775 43.0409C46.8169 44.8885 49.1356 45.4035 50.2468 45.7125L50.2709 45.7191C51.1454 45.9602 51.7371 46.1333 52.171 46.381L52.1886 46.3919C53.1003 46.9114 53.0367 47.6105 52.9052 47.8384L52.903 47.8428C52.8789 47.8866 52.846 47.9305 52.8022 47.9721L52.8 47.9743C52.6532 48.1189 52.4143 48.257 51.8685 48.5397L51.8532 48.5485C51.371 48.7983 50.6171 49.1753 50.0166 49.7605C49.2495 50.5034 48.763 51.5291 48.8507 52.8945C48.923 54.0364 49.4402 55.5113 50.2117 57.1528V57.155C47.2245 58.9368 43.7309 59.9625 40.001 59.9625C28.9751 59.9625 20.0397 51.0248 20.0397 40.0012C20.0397 38.1624 20.2874 36.3806 20.7541 34.6886V34.6908C20.8615 34.9319 20.9624 35.1708 21.0566 35.425L21.0632 35.4426C21.5256 36.6786 21.8061 37.9564 22.0932 39.2867C22.3474 40.457 22.6017 41.6712 23.0269 42.8086L23.04 42.8459C23.6055 44.3581 24.4207 45.603 25.0607 46.5848L25.0629 46.5914C25.6284 47.4571 25.9856 48.016 26.1631 48.5178L26.1697 48.531C26.288 48.8663 26.334 49.1819 26.3998 49.7035L26.402 49.7232C26.5401 50.8278 26.7198 52.2677 28.2035 53.8785L28.2188 53.8939C29.9963 55.8203 34.1515 58.4152 36.5517 58.4152C36.6569 58.4152 36.7642 58.4108 36.8716 58.3999C36.9133 58.3955 36.9396 58.3933 36.9396 58.3933C37.8097 58.2903 38.454 57.8344 38.8726 57.2054C38.9142 57.1419 38.9515 57.0827 38.9865 57.0191L38.9887 57.0148C39.3745 56.3354 39.5213 55.4653 39.6309 54.8977V54.8955C39.7996 54.0166 39.9508 53.2912 40.3081 52.66C40.7047 51.9587 41.4039 51.2793 42.2652 50.464L42.3003 50.4311C43.0432 49.7276 44.2705 48.6558 44.6015 47.3738L44.6059 47.3606C44.676 47.0932 44.7111 46.8017 44.6936 46.4949C44.6782 46.2297 44.6234 45.9799 44.5467 45.7498C44.3297 45.1076 43.9221 44.597 43.532 44.1959L43.5232 44.1849C42.8942 43.5363 42.0483 42.9204 41.3184 42.3856L41.3097 42.3769C40.4659 41.7566 39.7536 41.235 39.2188 40.6849L39.1991 40.663C38.6446 40.091 38.283 39.4927 37.8885 38.8286L37.8798 38.8155C37.5444 38.2523 37.0207 37.2945 36.1593 36.7619L36.1528 36.7575C35.8021 36.5406 35.4098 36.3959 34.9693 36.3411H34.9649C34.8663 36.328 34.7654 36.3192 34.6646 36.3192H34.5813C33.6696 36.3192 32.622 36.7247 31.9229 36.9811L31.9163 36.9833C30.9213 37.3449 30.2178 37.5794 29.6984 37.5794C29.5055 37.5794 29.4332 37.5443 29.4135 37.5334L29.3937 37.5224C28.6201 37.0863 28.2979 34.3051 28.9204 33.4372C28.9708 33.3649 29.1286 33.194 29.9548 33.194C30.3252 33.194 30.7329 33.2269 31.2107 33.2685C31.6534 33.3057 32.1706 33.3518 32.6681 33.3518C32.8434 33.3518 33.0166 33.3452 33.1963 33.332C33.3607 33.3211 33.5141 33.3014 33.6697 33.2773C34.7239 33.1107 35.5611 32.6789 36.1769 32.3677C36.8279 32.0412 37.2355 31.8417 37.7308 31.7628L37.7461 31.7607C38.0201 31.7168 38.3532 31.7059 38.8003 31.7059C38.8858 31.7059 39.3307 31.7081 39.4227 31.7081C40.6062 31.7081 42.5349 31.6905 43.9441 30.209C44.3035 29.8276 44.5994 29.3849 44.8339 28.9268C45.739 27.1626 46.4469 23.222 43.578 21.7492L43.5693 21.747C42.7343 21.3175 41.7612 21.2473 40.97 21.2473C40.3673 21.2473 39.7361 21.2912 39.1575 21.3328H39.1553C38.5395 21.3745 37.9894 21.4117 37.4722 21.4117C36.4552 21.4117 36.0059 21.2517 35.824 21.0983C35.6816 20.9778 35.5654 20.7959 35.48 20.5548C36.933 20.2173 38.4453 20.0397 39.9991 20.0397L40.0032 20.0398ZM39.9966 17C27.2937 17 17 27.2982 17 40.0011C17 52.704 27.2982 63 40.0011 63C52.704 63 63 52.7035 63 40.0011C63 27.2988 52.7035 17 40.0011 17H39.9966Z" fill="white"></path>
</svg>
