<?xml version="1.0" encoding="UTF-8"?>
<svg xmlns="http://www.w3.org/2000/svg" width="70" height="70" viewBox="0 0 70 70" fill="none">
  <rect width="70" height="70" rx="35" fill="#EDF7FF"></rect>
  <path d="M51.5 31.3332H18.5M51.5 35.9165V29.1332C51.5 26.0529 51.5 24.5127 50.9005 23.3362C50.3732 22.3013 49.5318 21.4599 48.4969 20.9326C47.3204 20.3332 45.7803 20.3332 42.7 20.3332H27.3C24.2197 20.3332 22.6796 20.3332 21.5031 20.9326C20.4682 21.4599 19.6268 22.3013 19.0995 23.3362C18.5 24.5127 18.5 26.0529 18.5 29.1332V44.5332C18.5 47.6135 18.5 49.1536 19.0995 50.3301C19.6268 51.365 20.4682 52.2064 21.5031 52.7337C22.6796 53.3332 24.2197 53.3332 27.3 53.3332H35M42.3333 16.6665V23.9998M27.6667 16.6665V23.9998M39.5833 47.8332L43.25 51.4998L51.5 43.2498" stroke="#0088EB" stroke-width="3" stroke-linecap="round" stroke-linejoin="round"></path>
</svg>
