<svg width="50" height="50" viewBox="0 0 50 50" fill="none" xmlns="http://www.w3.org/2000/svg">
<path d="M46.3701 20.611H46.2522L42.8814 12.4833H45.776C46.3954 12.4833 46.8989 11.9798 46.8989 11.3583C46.8989 10.7389 46.3954 10.2354 45.776 10.2354H38.1958C37.5342 10.2354 36.8938 10.4714 36.3882 10.8991L30.1017 16.2123C30.0006 16.2966 29.8721 16.3429 29.7415 16.3429H28.4037V12.8584C30.5399 11.3668 31.4627 8.66175 30.679 6.1777C29.8974 3.69172 27.5947 2 24.9885 2C22.3824 2 20.0798 3.69172 19.2981 6.1777C18.5144 8.66158 19.4371 11.3666 21.5734 12.8584V16.3408L20.107 16.3429C19.9743 16.3429 19.8479 16.2966 19.7468 16.2123L13.4771 10.9201C12.9736 10.4862 12.3331 10.2418 11.6674 10.2355H4.20088C3.58152 10.2355 3.078 10.739 3.078 11.3583C3.078 11.9798 3.58151 12.4833 4.20088 12.4833H7.12297L3.75216 20.59H3.6405C2.39961 20.59 1.39258 21.5949 1.39258 22.8358V23.0002C1.50424 27.0704 4.83501 30.3108 8.9076 30.3108C12.9779 30.3108 16.311 27.0706 16.4205 23.0002V22.8358C16.4205 22.2396 16.1845 21.6687 15.7631 21.2473C15.3417 20.826 14.7709 20.59 14.1746 20.59H14.0503L10.6858 12.4833H11.6697H11.6676C11.8003 12.4833 11.9267 12.5318 12.0278 12.6182L18.2911 17.904C18.7988 18.3317 19.4413 18.5677 20.1071 18.5677H21.5734V33.3868H19.0622C17.7729 33.3889 16.6478 34.2654 16.3361 35.5168L15.1795 40.1516H14.5622C13.0095 40.1516 11.7518 41.4094 11.7518 42.9599V46.1917C11.7518 46.9354 12.0489 47.6496 12.5755 48.1763C13.1022 48.7051 13.8164 49 14.5622 49H35.4148C36.1606 49 36.8748 48.705 37.4015 48.1763C37.9282 47.6496 38.2252 46.9354 38.2252 46.1917V42.9599C38.2252 42.2163 37.9282 41.5021 37.4015 40.9754C36.8748 40.4466 36.1606 40.1516 35.4148 40.1516H34.7976L33.641 35.5168C33.3292 34.2654 32.2042 33.3889 30.9148 33.3868H28.4036V18.5887H29.7414C30.403 18.5887 31.0434 18.3549 31.5511 17.9272L37.8376 12.6245V12.6224C37.9366 12.5381 38.0651 12.4896 38.1957 12.4875H39.3186L35.9478 20.6109H35.8298H35.8319C34.591 20.6109 33.584 21.618 33.584 22.8588V23.0211C33.584 27.1693 36.9464 30.5339 41.0947 30.5339C45.2429 30.5339 48.6075 27.1694 48.6075 23.0211V22.8588C48.6075 21.6222 47.6068 20.6173 46.3701 20.611ZM11.6168 20.611H6.19009L8.90356 14.0781L11.6168 20.611ZM38.3918 20.611L41.1053 14.0781L43.8188 20.611H38.3918Z" fill="#1E1E1E"/>
</svg>
