<svg width="50" height="50" viewBox="0 0 50 50" fill="none" xmlns="http://www.w3.org/2000/svg">
<path d="M42.4525 11.9082H35.9072V7.54536C35.9072 3.94541 32.9618 1 29.3618 1H7.54536C3.94541 1 1 3.94541 1 7.54536V40.2722C1 45.0728 4.92722 49 9.72784 49H40.2722C45.0728 49 49 45.0728 49 40.2722L48.998 18.4536C48.998 14.8536 46.0525 11.9082 42.4525 11.9082ZM24.999 40.2722H11.9082C10.7076 40.2722 9.72575 39.2904 9.72575 38.0897C9.72575 36.889 10.7076 35.9072 11.9082 35.9072H24.999C26.1996 35.9072 27.1814 36.889 27.1814 38.0897C27.1814 39.2904 26.1996 40.2722 24.999 40.2722ZM24.999 31.5443H11.9082C10.7076 31.5443 9.72575 30.5625 9.72575 29.3618C9.72575 28.1611 10.7076 27.1793 11.9082 27.1793H24.999C26.1996 27.1793 27.1814 28.1611 27.1814 29.3618C27.1814 30.5625 26.1996 31.5443 24.999 31.5443ZM27.1814 20.6361C27.1814 21.8368 26.1996 22.8186 24.999 22.8186L11.9082 22.8165C10.7076 22.8165 9.72575 21.8347 9.72575 20.634V11.9062C9.72575 10.7055 10.7076 9.7237 11.9082 9.7237H24.999C26.1996 9.7237 27.1814 10.7055 27.1814 11.9062V20.6361ZM44.635 40.2722C44.635 42.6714 42.6714 44.635 40.2722 44.635C37.8729 44.635 35.9093 42.6714 35.9093 40.2722L35.9072 16.2711H42.4526C43.6533 16.2711 44.6351 17.2529 44.6351 18.4536L44.635 40.2722ZM14.0907 14.0907H22.8186V18.4536H14.0907V14.0907Z" fill="#1E1E1E"/>
</svg>
