<svg width="50" height="50" viewBox="0 0 50 50" fill="none" xmlns="http://www.w3.org/2000/svg">
<path d="M47.5345 12.9646L38.3747 15.9268V35.0765L47.5345 38.0387C48.4065 38.3213 49.3332 37.7501 49.3332 36.9237V14.0796C49.3332 13.2562 48.4095 12.682 47.5345 12.9646Z" fill="#1E1E1E"/>
<path d="M35.667 11.8889C35.667 9.7409 33.9261 8 31.7781 8H4.55588C2.40789 8 0.666992 9.7409 0.666992 11.8889V39.1111C0.666992 41.2591 2.40789 43 4.55588 43H31.7781C33.9261 43 35.667 41.2591 35.667 39.1111V11.8889ZM7.97655 18.2752C6.33894 18.2752 5.01127 16.9476 5.01127 15.3099C5.01127 13.6723 6.33894 12.3447 7.97655 12.3447C9.61416 12.3447 10.9418 13.6723 10.9418 15.3099C10.9418 16.9476 9.61416 18.2752 7.97655 18.2752Z" fill="#1E1E1E"/>
</svg>
