<?xml version="1.0" encoding="UTF-8"?>
<svg xmlns="http://www.w3.org/2000/svg" width="70" height="70" viewBox="0 0 70 70" fill="none">
  <rect width="70" height="70" rx="35" fill="#EDF7FF"></rect>
  <path d="M27.667 38.6667C27.667 38.6667 30.417 42.3334 35.0003 42.3334C39.5837 42.3334 42.3337 38.6667 42.3337 38.6667M44.167 29.9401C43.4428 30.8292 42.4528 31.3334 41.417 31.3334C40.3812 31.3334 39.4187 30.8292 38.667 29.9401M31.3337 29.9401C30.6095 30.8292 29.6195 31.3334 28.5837 31.3334C27.5478 31.3334 26.5853 30.8292 25.8337 29.9401M53.3337 35.0001C53.3337 45.1253 45.1255 53.3334 35.0003 53.3334C24.8751 53.3334 16.667 45.1253 16.667 35.0001C16.667 24.8749 24.8751 16.6667 35.0003 16.6667C45.1255 16.6667 53.3337 24.8749 53.3337 35.0001Z" stroke="#0088EB" stroke-width="3" stroke-linecap="round" stroke-linejoin="round"></path>
</svg>
