<?xml version="1.0" encoding="UTF-8"?>
<svg xmlns="http://www.w3.org/2000/svg" width="80" height="80" viewBox="0 0 80 80" fill="none">
  <rect width="80" height="80" rx="40" fill="#2AAFA7"></rect>
  <path d="M57.0533 31.416H45.3231L47.1556 20.1531C47.4671 18.4519 45.4545 17.3179 44.1598 18.4642L31.5462 30.7812C30.6676 31.56 30.1638 32.6746 30.1638 33.8477V54.2079C30.1638 56.184 31.7651 57.783 33.7389 57.783H50.7529C53.2376 57.783 55.4814 56.2936 56.4525 54.0083L62.5196 39.6789C64.1867 35.7607 61.3097 31.416 57.0533 31.416Z" fill="white"></path>
  <path d="M25.3105 33.7648H20.9129C19.8542 33.7648 19 34.6239 19 35.6776V55.95C19 57.0087 19.8591 57.8629 20.9129 57.8629H25.3105C26.3691 57.8629 27.2233 57.0038 27.2233 55.95V35.6851C27.2233 34.6265 26.3691 33.7648 25.3105 33.7648Z" fill="white"></path>
</svg>
