<svg width="50" height="50" viewBox="0 0 50 50" fill="none" xmlns="http://www.w3.org/2000/svg">
<path d="M15.9754 22.3685H9.75589V41.4187H15.9754V22.3685Z" fill="#1E1E1E"/>
<path d="M28.6092 22.3685H22.3897V41.4187H28.6092V22.3685Z" fill="#1E1E1E"/>
<path d="M41.2441 22.3685H35.0246V41.4187H41.2441V22.3685Z" fill="#1E1E1E"/>
<path d="M6.85314 20.0358H44.1469C44.7895 20.0358 45.3131 19.511 45.3131 18.8695V16.2288C45.3131 15.5873 44.8897 14.7522 44.3719 14.3743L26.4423 1.2843C25.9245 0.905233 25.0767 0.905233 24.5589 1.2843L6.62806 14.3755C6.11025 14.7534 5.68574 15.5885 5.68574 16.23V18.8706C5.68691 19.511 6.21171 20.0358 6.85314 20.0358ZM25.5 8.37226C27.647 8.37226 29.387 10.1125 29.387 12.2597C29.387 14.407 27.647 16.1472 25.5 16.1472C23.353 16.1472 21.613 14.407 21.613 12.2597C21.613 10.1125 23.353 8.37226 25.5 8.37226Z" fill="#1E1E1E"/>
<path d="M43.6675 43.7514H7.33246C6.04494 43.7514 5 44.7964 5 46.0841V49H46V46.0841C46 44.7964 44.9551 43.7514 43.6675 43.7514Z" fill="#1E1E1E"/>
</svg>
