<?xml version="1.0" encoding="UTF-8"?>
<svg xmlns="http://www.w3.org/2000/svg" width="80" height="80" viewBox="0 0 80 80" fill="none">
  <rect width="80" height="80" rx="40" fill="#2AAFA7"></rect>
  <path d="M20.7178 20C20.3589 20 20 20.314 20 20.7178V44.4951C20 54.9033 28.1202 63.3375 38.3489 63.9656C49.6543 64.6385 59.0755 55.3519 59.0755 44.0465V20.7178C59.0755 20.314 58.7166 20 58.3577 20H20.7178ZM54.1855 44.3605C54.1855 52.2115 48.0393 58.6269 40.278 59.0307C39.8742 59.0307 39.5153 58.7166 39.5153 58.3129V25.563C39.5153 25.1592 39.8294 24.8452 40.2331 24.8452H53.4677C53.8714 24.8452 54.1855 25.1592 54.1855 25.563V44.3605Z" fill="white"></path>
</svg>
