<svg width="34" height="34" viewBox="0 0 34 34" fill="none" xmlns="http://www.w3.org/2000/svg">
<path d="M16.9997 31.1666C24.8237 31.1666 31.1663 24.824 31.1663 16.9999C31.1663 9.17588 24.8237 2.83325 16.9997 2.83325C9.17564 2.83325 2.83301 9.17588 2.83301 16.9999C2.83301 24.824 9.17564 31.1666 16.9997 31.1666Z" stroke="#1E1E1E" stroke-width="3" stroke-linecap="round" stroke-linejoin="round"/>
<path d="M13.458 12.7008C13.458 12.0247 13.458 11.6866 13.5993 11.4978C13.7224 11.3334 13.9109 11.2305 14.1159 11.2158C14.3511 11.199 14.6354 11.3818 15.2042 11.7475L21.8917 16.0466C22.3853 16.3639 22.632 16.5225 22.7173 16.7242C22.7917 16.9005 22.7917 17.0994 22.7173 17.2756C22.632 17.4773 22.3853 17.636 21.8917 17.9533L15.2042 22.2524C14.6354 22.618 14.3511 22.8008 14.1159 22.784C13.9109 22.7694 13.7224 22.6665 13.5993 22.502C13.458 22.3133 13.458 21.9752 13.458 21.299V12.7008Z" stroke="#1E1E1E" stroke-width="3" stroke-linecap="round" stroke-linejoin="round"/>
</svg>
