<svg width="34" height="34" viewBox="0 0 34 34" fill="none" xmlns="http://www.w3.org/2000/svg">
<path d="M25.4995 22.4356C27.5621 23.4717 29.3304 25.1344 30.6211 27.2136C30.8767 27.6254 31.0045 27.8313 31.0487 28.1163C31.1385 28.6957 30.7423 29.4079 30.2028 29.6372C29.9373 29.75 29.6386 29.75 29.0412 29.75M22.6662 16.3373C24.7653 15.2942 26.2079 13.1281 26.2079 10.625C26.2079 8.12195 24.7653 5.95582 22.6662 4.91266M19.8329 10.625C19.8329 14.1458 16.9787 17 13.4579 17C9.93704 17 7.08286 14.1458 7.08286 10.625C7.08286 7.10418 9.93704 4.25 13.4579 4.25C16.9787 4.25 19.8329 7.10418 19.8329 10.625ZM3.6251 26.8293C5.8837 23.4381 9.4478 21.25 13.4579 21.25C17.4679 21.25 21.032 23.4381 23.2906 26.8293C23.7854 27.5722 24.0328 27.9437 24.0043 28.4182C23.9822 28.7877 23.74 29.24 23.4447 29.4633C23.0656 29.75 22.5441 29.75 21.5012 29.75H5.41453C4.3716 29.75 3.85014 29.75 3.47098 29.4633C3.17576 29.24 2.93357 28.7877 2.91139 28.4182C2.88291 27.9437 3.1303 27.5722 3.6251 26.8293Z" stroke="#1E1E1E" stroke-width="3" stroke-linecap="round" stroke-linejoin="round"/>
</svg>
