<svg width="50" height="50" viewBox="0 0 50 50" fill="none" xmlns="http://www.w3.org/2000/svg">
<path d="M24.9397 24.8287C28.9416 24.8287 32.1857 21.5845 32.1857 17.5827C32.1857 13.5808 28.9416 10.3367 24.9397 10.3367C20.9378 10.3367 17.6937 13.5808 17.6937 17.5827C17.6937 21.5845 20.9378 24.8287 24.9397 24.8287Z" fill="#1E1E1E"/>
<path d="M30.495 29.0314C30.0057 28.4681 29.4007 28.0169 28.7213 27.7085C28.042 27.4 27.3041 27.2416 26.558 27.244H23.3214C22.5757 27.2432 21.8385 27.4029 21.1601 27.7125C20.4816 28.022 19.8778 28.474 19.3896 29.0378C18.9015 29.6016 18.5405 30.2638 18.3312 30.9796C18.1219 31.6954 18.0692 32.4478 18.1768 33.1858L19.795 44.5137C19.9658 45.7569 20.5809 46.8962 21.5267 47.7209C22.4725 48.5456 23.6849 49 24.9397 49C26.1945 49 27.407 48.5456 28.3527 47.7209C29.2985 46.8962 29.9136 45.7569 30.0844 44.5137L31.7026 33.1858C31.8118 32.4472 31.7605 31.6937 31.552 30.9768C31.3436 30.2599 30.9831 29.5963 30.495 29.0314Z" fill="#1E1E1E"/>
<path d="M33.49 28.5483C33.0152 28.5463 32.5515 28.4045 32.1569 28.1405C31.7623 27.8764 31.4542 27.502 31.2712 27.0638C31.0882 26.6257 31.0384 26.1434 31.1281 25.6771C31.2177 25.2108 31.4427 24.7813 31.7751 24.4422C32.677 23.5445 33.3927 22.4775 33.881 21.3024C34.3694 20.1273 34.6208 18.8673 34.6208 17.5948C34.6208 16.3222 34.3694 15.0622 33.881 13.8871C33.3927 12.712 32.677 11.645 31.7751 10.7473C31.3235 10.2925 31.0711 9.67687 31.0733 9.03592C31.0756 8.39498 31.3324 7.78119 31.7872 7.32957C32.242 6.87796 32.8576 6.62552 33.4985 6.62778C34.1395 6.63005 34.7533 6.88683 35.2049 7.34165C36.5523 8.68757 37.6212 10.2859 38.3505 12.0452C39.0798 13.8045 39.4552 15.6903 39.4552 17.5948C39.4552 19.4992 39.0798 21.385 38.3505 23.1443C37.6212 24.9036 36.5523 26.5019 35.2049 27.8479C34.9792 28.0717 34.7115 28.2488 34.4173 28.369C34.123 28.4892 33.8079 28.5501 33.49 28.5483Z" fill="#1E1E1E"/>
<path d="M16.3894 28.5483C16.0698 28.547 15.7537 28.4823 15.4593 28.3579C15.165 28.2335 14.8982 28.0519 14.6745 27.8237C13.3271 26.4778 12.2582 24.8795 11.5289 23.1202C10.7996 21.3609 10.4242 19.4751 10.4242 17.5706C10.4242 15.6661 10.7996 13.7803 11.5289 12.021C12.2582 10.2617 13.3271 8.66341 14.6745 7.3175C14.8981 7.09229 15.1639 6.91334 15.4567 6.79085C15.7495 6.66837 16.0635 6.60475 16.3809 6.60363C16.6982 6.60251 17.0127 6.6639 17.3063 6.78432C17.6 6.90473 17.867 7.0818 18.0922 7.30542C18.3174 7.52904 18.4964 7.79482 18.6189 8.08759C18.7413 8.38037 18.805 8.69441 18.8061 9.01177C18.8072 9.32913 18.7458 9.64361 18.6254 9.93724C18.505 10.2309 18.3279 10.4979 18.1043 10.7231C17.2024 11.6208 16.4867 12.6879 15.9984 13.863C15.51 15.0381 15.2586 16.2981 15.2586 17.5706C15.2586 18.8431 15.51 20.1031 15.9984 21.2782C16.4867 22.4533 17.2024 23.5204 18.1043 24.4181C18.4367 24.7572 18.6617 25.1867 18.7513 25.6529C18.841 26.1192 18.7912 26.6016 18.6082 27.0397C18.4252 27.4778 18.1171 27.8523 17.7225 28.1163C17.3279 28.3803 16.8642 28.5222 16.3894 28.5242V28.5483Z" fill="#1E1E1E"/>
<path d="M38.6105 33.6688C38.1648 33.6295 37.7388 33.4672 37.38 33.1999C37.0211 32.9327 36.7436 32.571 36.5783 32.1552C36.4129 31.7394 36.3664 31.2859 36.4437 30.8452C36.5211 30.4045 36.7194 29.994 37.0164 29.6594C38.6231 28.0852 39.8995 26.2062 40.7708 24.1325C41.6422 22.0588 42.0911 19.832 42.0911 17.5827C42.0911 15.3333 41.6422 13.1066 40.7708 11.0329C39.8995 8.95919 38.6231 7.08021 37.0164 5.50599C36.5648 5.05118 36.3123 4.43558 36.3146 3.79464C36.3169 3.1537 36.5737 2.5399 37.0285 2.08829C37.4833 1.63668 38.0989 1.38423 38.7398 1.3865C39.3808 1.38876 39.9946 1.64555 40.4462 2.10037C42.4655 4.11902 44.0673 6.51572 45.1602 9.15356C46.2531 11.7914 46.8156 14.6187 46.8156 17.474C46.8156 20.3293 46.2531 23.1566 45.1602 25.7944C44.0673 28.4323 42.4655 30.829 40.4462 32.8476C40.2171 33.1083 39.9346 33.3166 39.6179 33.4583C39.3011 33.6001 38.9575 33.6718 38.6105 33.6688Z" fill="#1E1E1E"/>
<path d="M11.2689 33.6688C10.951 33.6707 10.6359 33.6097 10.3416 33.4895C10.0474 33.3693 9.77969 33.1922 9.554 32.9684C7.53469 30.9497 5.93284 28.553 4.83996 25.9152C3.74708 23.2773 3.18457 20.45 3.18457 17.5948C3.18457 14.7395 3.74708 11.9122 4.83996 9.27433C5.93284 6.63649 7.53469 4.23979 9.554 2.22113C9.73746 1.89861 9.99275 1.62269 10.3001 1.41479C10.6074 1.20688 10.9585 1.07257 11.3261 1.02228C11.6937 0.971998 12.068 1.00709 12.4199 1.12482C12.7718 1.24256 13.0918 1.43979 13.3551 1.70119C13.6184 1.9626 13.818 2.28116 13.9383 2.63216C14.0586 2.98316 14.0964 3.35716 14.0489 3.72514C14.0013 4.09312 13.8695 4.44519 13.6639 4.75403C13.4582 5.06287 13.1842 5.32018 12.863 5.50599C11.2563 7.08021 9.97993 8.95919 9.10856 11.0329C8.23718 13.1066 7.78834 15.3333 7.78834 17.5827C7.78834 19.832 8.23718 22.0588 9.10856 24.1325C9.97993 26.2062 11.2563 28.0852 12.863 29.6594C13.2036 29.9972 13.436 30.4288 13.5303 30.8992C13.6247 31.3696 13.5768 31.8574 13.3929 32.3005C13.2089 32.7436 12.8972 33.1218 12.4974 33.387C12.0976 33.6522 11.6279 33.7924 11.1481 33.7896L11.2689 33.6688Z" fill="#1E1E1E"/>
</svg>
