<svg width="50" height="50" viewBox="0 0 50 50" fill="none" xmlns="http://www.w3.org/2000/svg">
<path d="M12.6116 41.3267H40.7505C42.0946 41.3267 43.186 40.2332 43.186 38.8911L43.188 3.43554C43.188 2.09143 42.0945 1 40.7524 1H9.24804C7.90595 1 6.8125 2.09345 6.8125 3.43554V43.1995C6.8125 46.3989 9.41382 49 12.613 49H41.2237C42.3072 49 43.1875 48.1197 43.1875 47.0362C43.1875 45.9526 42.3072 45.0724 41.2237 45.0724H12.7433C11.7604 45.0724 10.9098 44.4053 10.7637 43.5191C10.6709 42.9605 10.819 42.4158 11.1821 41.9895C11.5393 41.5671 12.0604 41.3263 12.6091 41.3263L12.6116 41.3267ZM23.2182 9.65249C28.5846 9.65249 32.9527 14.0183 32.9527 19.387C32.9527 21.4574 32.2974 23.3758 31.1902 24.9565L35.8836 29.275C36.683 30.0092 36.7343 31.2527 36.0001 32.052C35.2659 32.8513 34.0224 32.9026 33.2231 32.1684C33.1836 32.1309 33.1441 32.0915 33.1066 32.052L28.7882 27.3585C27.2072 28.4657 25.2908 29.121 23.2186 29.121C17.8522 29.121 13.4841 24.7552 13.4841 19.3866C13.4841 14.0201 17.85 9.65209 23.2186 9.65209L23.2182 9.65249Z" fill="#1E1E1E"/>
<path d="M23.2187 26.5006C27.1424 26.5006 30.3339 23.3091 30.3339 19.3854C30.3339 15.4617 27.1424 12.2703 23.2187 12.2703C19.295 12.2703 16.1035 15.4617 16.1035 19.3854C16.1035 23.3091 19.295 26.5006 23.2187 26.5006ZM23.2187 14.5223C23.9411 14.5223 24.5273 15.1085 24.5273 15.8308C24.5273 16.5532 23.941 17.1393 23.2187 17.1393C21.9812 17.1393 20.9746 18.1459 20.9746 19.3834C20.9746 20.1058 20.3884 20.692 19.6641 20.692C18.9417 20.692 18.3555 20.1058 18.3555 19.3834C18.3555 16.7012 20.5365 14.5202 23.2187 14.5202V14.5223Z" fill="#1E1E1E"/>
</svg>
