<?xml version="1.0" encoding="UTF-8"?>
<svg xmlns="http://www.w3.org/2000/svg" width="70" height="70" viewBox="0 0 70 70" fill="none">
  <rect width="70" height="70" rx="35" fill="#EDF7FF"></rect>
  <path d="M35 32.25V25.8333M35 38.6667H35.0183M25.8333 46V50.2818C25.8333 51.2586 25.8333 51.7471 26.0336 51.998C26.2077 52.2161 26.4718 52.3431 26.751 52.3428C27.072 52.3424 27.4534 52.0373 28.2162 51.427L32.5896 47.9284C33.4829 47.2136 33.9296 46.8563 34.4271 46.6022C34.8684 46.3767 35.3381 46.2119 35.8236 46.1123C36.3707 46 36.9428 46 38.0869 46H42.7C45.7803 46 47.3204 46 48.4969 45.4005C49.5318 44.8732 50.3732 44.0318 50.9005 42.9969C51.5 41.8204 51.5 40.2803 51.5 37.2V27.3C51.5 24.2197 51.5 22.6796 50.9005 21.5031C50.3732 20.4682 49.5318 19.6268 48.4969 19.0995C47.3204 18.5 45.7803 18.5 42.7 18.5H27.3C24.2197 18.5 22.6796 18.5 21.5031 19.0995C20.4682 19.6268 19.6268 20.4682 19.0995 21.5031C18.5 22.6796 18.5 24.2197 18.5 27.3V38.6667C18.5 40.3716 18.5 41.2241 18.6874 41.9235C19.196 43.8215 20.6785 45.304 22.5765 45.8126C23.2759 46 24.1284 46 25.8333 46Z" stroke="#0088EB" stroke-width="3" stroke-linecap="round" stroke-linejoin="round"></path>
</svg>
