<?xml version="1.0" encoding="UTF-8"?>
<svg xmlns="http://www.w3.org/2000/svg" width="80" height="80" viewBox="0 0 80 80" fill="none">
  <rect width="80" height="80" rx="40" fill="#2AAFA7"></rect>
  <path d="M57.9947 43.1384L56.9942 45.1388C56.469 46.1892 55.6176 47.041 54.5672 47.5663L52.5668 48.5663L54.5667 49.5662C55.6172 50.0914 56.469 50.9433 56.9942 51.9937L57.9947 53.9941L58.9947 51.9937C59.5199 50.9433 60.3718 50.0915 61.4221 49.5662L63.4221 48.5663L61.4217 47.5663C60.3713 47.0411 59.5199 46.1892 58.9947 45.1388L57.9947 43.1384Z" fill="white"></path>
  <path d="M57.9947 29.5698L58.9947 27.5694C59.5199 26.519 60.3718 25.6671 61.4221 25.1419L63.4221 24.1419L61.4217 23.1419C60.3713 22.6167 59.5199 21.7648 58.9947 20.7144L57.9947 18.714L56.9942 20.7144C56.469 21.7648 55.6176 22.6167 54.5672 23.1419L52.5668 24.1419L54.5667 25.1419C55.6171 25.6671 56.469 26.519 56.9942 27.5694L57.9947 29.5698Z" fill="white"></path>
  <path d="M28.1416 32.2833L30.0462 28.4737C30.5714 27.4233 31.4233 26.5714 32.4737 26.0462L36.2833 24.1416L32.4737 22.2371C31.4233 21.7119 30.5714 20.86 30.0462 19.8096L28.1416 16L26.2371 19.8096C25.7119 20.86 24.86 21.7118 23.8096 22.2366L20 24.1416L23.8096 26.0467C24.86 26.5714 25.7118 27.4233 26.2371 28.4737L28.1416 32.2833Z" fill="white"></path>
  <path d="M50.1822 31.9541C49.1645 30.9364 47.7838 30.3644 46.3445 30.3644C44.9051 30.3644 43.5244 30.9364 42.5067 31.9541L21.727 52.7339C20.3558 54.105 19.8205 56.1037 20.3222 57.9769C20.8242 59.85 22.2872 61.3131 24.1604 61.8151C26.0332 62.3166 28.0317 61.7814 29.4029 60.4103L50.1827 39.6305C51.2004 38.6123 51.7728 37.2321 51.7728 35.7923C51.7728 34.353 51.2008 32.9723 50.1831 31.9546L50.1822 31.9541ZM48.2636 37.7114L46.3445 39.6305L42.5067 35.7928L44.4254 33.8732C45.1109 33.1876 46.1104 32.9196 47.0469 33.1708C47.9837 33.4216 48.7152 34.1531 48.9659 35.0899C49.2172 36.0263 48.9492 37.0259 48.2636 37.7114Z" fill="white"></path>
</svg>
