<svg width="50" height="50" viewBox="0 0 50 50" fill="none" xmlns="http://www.w3.org/2000/svg">
<path d="M46.676 9.14403C46.5919 8.66807 46.1832 8.32194 45.7025 8.32194C42.2529 8.32194 39.4452 5.48297 39.4452 1.9976C39.4452 1.44472 39.0029 1 38.4572 1H12.5796C12.0339 1 11.5916 1.44472 11.5916 1.9976C11.5916 5.48322 8.78388 8.32194 5.33433 8.32194C4.86318 8.32194 4.45691 8.65607 4.36559 9.12243C4.31751 9.36763 -0.237812 33.5311 22.4906 48.1226C23.4017 48.7067 24.4401 49 25.4834 49C26.5267 49 27.5964 48.7019 28.5147 48.1058C50.7381 33.7691 46.8464 10.1463 46.671 9.1444L46.676 9.14403ZM21.4378 25.1035H14.4088C13.7093 25.1035 13.1372 24.5241 13.1372 23.8174V21.1203C13.1372 20.4136 13.7093 19.8343 14.4088 19.8343H21.4378C22.2527 19.8343 22.9137 19.1684 22.9137 18.3439V11.998C22.9137 11.2889 23.4858 10.712 24.1854 10.712H26.8512C27.5507 10.712 28.1229 11.2865 28.1229 11.998V18.3439C28.1229 19.1684 28.7839 19.8343 29.5988 19.8343H36.6277C37.3273 19.8343 37.8994 20.4136 37.8994 21.1203V23.8174C37.8994 24.5242 37.3321 25.1035 36.6277 25.1035H29.5988C28.7839 25.1035 28.1229 25.7693 28.1229 26.5939V33.6973C28.1229 34.404 27.5555 34.9833 26.8512 34.9833H24.1854C23.4858 34.9833 22.9137 34.404 22.9137 33.6973V26.5939C22.9137 25.7694 22.2527 25.1035 21.4378 25.1035Z" fill="#0088EB"/>
</svg>
