<?xml version="1.0" encoding="UTF-8"?>
<svg xmlns="http://www.w3.org/2000/svg" width="80" height="80" viewBox="0 0 80 80" fill="none">
  <rect width="80" height="80" rx="40" fill="#2AAFA7"></rect>
  <path d="M32.7675 24.5888C28.087 24.5888 24.9067 28.2384 24.9067 32.7398C24.9067 37.2401 28.087 40.8908 32.7675 40.8908C37.4454 40.8908 40.6251 37.2401 40.6251 32.7398C40.6251 28.2384 37.4454 24.5888 32.7675 24.5888Z" fill="white"></path>
  <path d="M19 56.062C19.1051 58.2103 19.8672 60.6178 21.1077 61.9948C22.2965 63.3858 43.9734 63.2834 44.4241 61.9948C45.6652 60.6178 46.4246 58.2103 46.5324 56.062C46.5324 48.7553 40.4086 42.8305 32.8294 42.7654V42.758C32.8091 42.758 32.7872 42.7612 32.7648 42.7612C32.744 42.7612 32.7238 42.758 32.703 42.758V42.7654C25.1232 42.831 19 48.7553 19 56.062Z" fill="white"></path>
  <path d="M48.366 15C43.6865 15 40.5057 18.6496 40.5057 23.1504C40.5057 27.6518 43.6865 31.3025 48.366 31.3025C53.0438 31.3025 56.2241 27.6518 56.2241 23.1504C56.2241 18.6496 53.0438 15 48.366 15Z" fill="white"></path>
  <path d="M48.4278 33.1755V33.1697C48.407 33.1697 48.3857 33.1723 48.3644 33.1723C48.3436 33.1723 48.3228 33.1697 48.3014 33.1697V33.1755C46.278 33.1931 44.359 33.6315 42.6326 34.399C42.1857 37.4854 40.4987 40.0374 38.0683 41.5441C43.3926 43.3964 47.4214 47.9164 48.4177 53.4108C54.118 53.406 59.7948 53.0588 60.0225 52.4055C61.2636 51.0284 62.0247 48.6215 62.1303 46.4732C62.1308 39.1665 56.0076 33.2417 48.4278 33.1755Z" fill="white"></path>
</svg>
