<svg width="50" height="50" viewBox="0 0 50 50" fill="none" xmlns="http://www.w3.org/2000/svg">
<path d="M48.279 14.9146L25.4933 2.13093C25.1843 1.95636 24.8045 1.95636 24.4978 2.13093L1.71644 14.9146C1.02291 15.3014 1.02291 16.297 1.71644 16.6909L24.5021 29.4769C24.8111 29.6515 25.1909 29.6515 25.4976 29.4769L45.132 18.4628V30.5054C45.132 31.3381 45.809 32.0152 46.6418 32.0152C47.4745 32.0152 48.1515 31.3381 48.1515 30.5054V16.7664L48.2836 16.6933C48.9772 16.3064 48.9772 15.3108 48.2836 14.9169L48.279 14.9146Z" fill="#1E1E1E"/>
<path d="M32.1406 49C37.2196 49 41.3382 44.8811 41.3382 39.8024V25.7306C41.3382 25.3508 40.9277 25.1079 40.5951 25.2966L25.9146 33.5345C25.6315 33.6973 25.3106 33.7752 24.9969 33.7752C24.6832 33.7752 24.3623 33.6973 24.0793 33.5345L9.40359 25.2966C9.07096 25.1102 8.66047 25.3508 8.66047 25.7306V39.8024C8.66047 44.8814 12.7793 49 17.8581 49H32.1406Z" fill="#1E1E1E"/>
</svg>
