<?xml version="1.0" encoding="UTF-8"?>
<svg xmlns="http://www.w3.org/2000/svg" width="70" height="70" viewBox="0 0 70 70" fill="none">
  <rect width="70" height="70" rx="35" fill="#EDF7FF"></rect>
  <path d="M51.5 22.1665L31.3333 22.1665M51.5 47.8332L31.3333 47.8332M51.5 34.9998L31.3333 34.9998M24 22.1665C24 23.6853 22.7688 24.9165 21.25 24.9165C19.7312 24.9165 18.5 23.6853 18.5 22.1665C18.5 20.6477 19.7312 19.4165 21.25 19.4165C22.7688 19.4165 24 20.6477 24 22.1665ZM24 47.8332C24 49.352 22.7688 50.5832 21.25 50.5832C19.7312 50.5832 18.5 49.352 18.5 47.8332C18.5 46.3144 19.7312 45.0832 21.25 45.0832C22.7688 45.0832 24 46.3144 24 47.8332ZM24 34.9998C24 36.5186 22.7688 37.7498 21.25 37.7498C19.7312 37.7498 18.5 36.5186 18.5 34.9998C18.5 33.4811 19.7312 32.2498 21.25 32.2498C22.7688 32.2498 24 33.4811 24 34.9998Z" stroke="#0088EB" stroke-width="3" stroke-linecap="round" stroke-linejoin="round"></path>
</svg>
