<svg xmlns="http://www.w3.org/2000/svg" width="260" height="44" fill="none"><path fill="#0088EB" d="M233.073 27.15h-3.843l4.991-14.48h4.76l4.991 14.48h-3.843l-3.474-10.831h-.115zm-.513-5.698h8.032v2.658h-8.032zM249.14 12.67v14.48h-3.575V12.67z"></path><path fill="url(#logo_svg__a)" fill-rule="evenodd" d="M249.546 36.369a2.01 2.01 0 0 0-.134-2.223 2.047 2.047 0 0 0-2.851-.404l-4.073 3.03a2.014 2.014 0 0 0 0 3.233l4.073 3.031c.9.669 2.177.49 2.851-.404a2.01 2.01 0 0 0 .134-2.222h.273c2.7 0 5.29-1.065 7.2-2.958A10.07 10.07 0 0 0 260 30.307V10.102c0-2.679-1.073-5.249-2.981-7.144a10.23 10.23 0 0 0-7.2-2.958h-20.363c-2.7 0-5.29 1.065-7.2 2.958a10.07 10.07 0 0 0-2.981 7.144v20.205c0 2.68 1.073 5.25 2.981 7.145a10.23 10.23 0 0 0 7.2 2.958h4.073a2.03 2.03 0 0 0 2.036-2.02c0-1.116-.912-2.021-2.036-2.021h-4.073a6.13 6.13 0 0 1-4.319-1.776 6.03 6.03 0 0 1-1.79-4.286V10.102c0-1.608.644-3.15 1.79-4.285a6.13 6.13 0 0 1 4.319-1.776h20.363c1.621 0 3.174.638 4.319 1.776a6.03 6.03 0 0 1 1.79 4.285v20.205c0 1.609-.644 3.15-1.79 4.286a6.13 6.13 0 0 1-4.319 1.776z" clip-rule="evenodd"></path><path fill="#1E1E1E" d="M0 14.787V11.93h12.303v2.857H7.889v11.7H4.421v-11.7zM14.021 26.486V11.93h6.013q1.634 0 2.822.59 1.195.583 1.84 1.678.648 1.087.647 2.58 0 1.513-.66 2.572-.662 1.053-1.877 1.607-1.215.546-2.878.547h-3.803v-2.772h3.149q.795 0 1.329-.206.54-.213.817-.64.277-.433.277-1.108 0-.676-.277-1.116a1.67 1.67 0 0 0-.817-.669q-.54-.227-1.33-.227H17.54v11.72zm8.195-6.652 3.625 6.652h-3.838l-3.554-6.652zM30.422 26.486H26.64l4.91-14.556h4.685l4.91 14.556h-3.78l-3.419-10.888h-.114zm-.505-5.728h7.904v2.672h-7.904zM55.102 11.93v14.556h-2.985l-5.792-8.4h-.093v8.4h-3.518V11.93h3.028l5.729 8.387h.12V11.93zM65.183 16.294q-.072-.782-.633-1.215-.555-.44-1.585-.44-.683 0-1.137.177-.454.178-.682.49-.228.306-.235.704-.015.327.128.576.15.248.426.44.284.184.683.327.398.143.895.249l1.251.284q1.08.235 1.905.626.832.39 1.393.93.57.54.86 1.245.291.703.299 1.578-.007 1.379-.697 2.366t-1.983 1.514q-1.287.526-3.106.526-1.827 0-3.184-.547-1.358-.548-2.111-1.663-.753-1.116-.775-2.822h3.37q.042.704.376 1.173t.917.71q.59.242 1.364.242.711 0 1.209-.192.504-.191.774-.533.27-.34.278-.782a1.08 1.08 0 0 0-.256-.703q-.249-.3-.768-.512a8 8 0 0 0-1.308-.405l-1.52-.355q-1.892-.434-2.979-1.4-1.088-.974-1.08-2.63-.007-1.35.725-2.367t2.026-1.585q1.293-.57 2.95-.569 1.69 0 2.935.576 1.25.568 1.94 1.6.69 1.03.704 2.387zM83.74 17.204h-3.553a3.1 3.1 0 0 0-.292-.988 2.4 2.4 0 0 0-.583-.753 2.5 2.5 0 0 0-.86-.477 3.3 3.3 0 0 0-1.087-.17q-1.059 0-1.827.519-.76.518-1.172 1.5-.406.98-.406 2.373 0 1.45.413 2.431.42.975 1.172 1.471.76.49 1.799.49.582 0 1.059-.149.483-.15.845-.433.37-.291.604-.704a2.9 2.9 0 0 0 .334-.945l3.554.021a5.4 5.4 0 0 1-.561 1.905 6.1 6.1 0 0 1-1.273 1.713q-.81.769-1.975 1.222-1.16.455-2.659.455-1.975 0-3.54-.867-1.555-.874-2.458-2.544t-.903-4.066q0-2.402.917-4.072.917-1.671 2.48-2.538 1.564-.867 3.504-.867a7.8 7.8 0 0 1 2.445.37 5.9 5.9 0 0 1 1.976 1.066 5.5 5.5 0 0 1 1.386 1.713q.534 1.016.661 2.324M85.753 26.486V11.93h6.013q1.635 0 2.822.59 1.195.583 1.84 1.678.648 1.087.648 2.58 0 1.513-.661 2.572-.662 1.053-1.877 1.607-1.216.546-2.878.547h-3.803v-2.772h3.149q.796 0 1.329-.206.54-.213.817-.64.278-.433.278-1.108 0-.676-.278-1.116a1.67 1.67 0 0 0-.817-.669q-.54-.227-1.33-.227h-1.733v11.72zm8.195-6.652 3.625 6.652h-3.838l-3.554-6.652zM102.523 11.93v14.556h-3.518V11.93zM104.732 26.486V11.93h6.07q1.635 0 2.736.462 1.109.463 1.663 1.294.562.831.562 1.926 0 .832-.348 1.485a3.1 3.1 0 0 1-.96 1.074 3.8 3.8 0 0 1-1.414.597v.142q.881.042 1.627.476.754.434 1.209 1.208.455.767.455 1.82 0 1.172-.598 2.096-.596.918-1.727 1.45-1.13.526-2.743.526zm3.518-2.836h2.175q1.145 0 1.685-.433.547-.434.547-1.208 0-.562-.263-.967a1.7 1.7 0 0 0-.746-.633q-.484-.227-1.159-.227h-2.239zm0-5.735h1.948q.576 0 1.023-.192a1.57 1.57 0 0 0 .697-.555 1.48 1.48 0 0 0 .256-.874q0-.732-.519-1.151-.52-.42-1.4-.42h-2.005zM118.023 26.486V11.93h10.15v2.857h-6.632v2.986h6.113v2.864h-6.113v2.992h6.632v2.857zM130.241 13.494V11.93h10.917v1.564h-4.577v12.992h-1.763V13.494zM155.554 19.208q0 2.304-.831 3.98-.832 1.678-2.282 2.588t-3.312.91-3.312-.91-2.282-2.588q-.831-1.676-.831-3.98 0-2.303.831-3.98.832-1.677 2.282-2.587t3.312-.91 3.312.91 2.282 2.587.831 3.98m-1.706 0q0-1.89-.632-3.191-.625-1.3-1.699-1.969a4.4 4.4 0 0 0-2.388-.668 4.44 4.44 0 0 0-2.395.668q-1.066.669-1.699 1.969-.625 1.3-.625 3.191t.625 3.192q.633 1.3 1.699 1.968a4.44 4.44 0 0 0 2.395.668q1.321 0 2.388-.668 1.074-.668 1.699-1.968.632-1.301.632-3.192M157.381 14.787V11.93h12.303v2.857h-4.414v11.7h-3.468v-11.7zM171.402 26.486V11.93h10.149v2.857h-6.631v2.986h6.113v2.864h-6.113v2.992h6.631v2.857zM187.316 11.93l2.658 4.599h.114l2.686-4.599h3.938l-4.393 7.278 4.535 7.278h-4.037l-2.729-4.648h-.114l-2.729 4.648h-4.009l4.513-7.278-4.399-7.278zM198.055 14.787V11.93h12.303v2.857h-4.414v11.7h-3.468v-11.7zM213.347 26.692q-.768 0-1.315-.54a1.76 1.76 0 0 1-.533-1.308 1.72 1.72 0 0 1 .533-1.286q.547-.54 1.315-.54.724 0 1.279.54a1.736 1.736 0 0 1 .299 2.218q-.256.42-.676.668a1.7 1.7 0 0 1-.902.248"></path><defs><linearGradient id="logo_svg__a" x1="225.924" x2="234.235" y1="7.48" y2="17.454" gradientUnits="userSpaceOnUse"><stop stop-color="#2AAFA7"></stop><stop offset="1" stop-color="#0088EB"></stop></linearGradient></defs></svg>